<svg width="512" height="512" viewBox="0 0 512 512" fill="none" xmlns="http://www.w3.org/2000/svg">
  <!-- Final logo: Clean bold curly braces with thick document lines -->

  <!-- Left curly bracket { - ULTRA BOLD -->
  <path d="M 160 60 C 110 60, 70 90, 70 140 L 70 200 C 70 235, 35 255, 10 255 L 10 270 C 35 270, 70 290, 70 325 L 70 385 C 70 435, 110 465, 160 465 L 160 420 C 135 420, 120 405, 120 380 L 120 320 C 120 280, 90 255, 50 248 C 90 241, 120 216, 120 176 L 120 116 C 120 91, 135 76, 160 76 Z" fill="white" stroke="white" stroke-width="12" stroke-linejoin="round"/>

  <!-- Right curly bracket } - ULTRA BOLD -->
  <path d="M 352 60 C 402 60, 442 90, 442 140 L 442 200 C 442 235, 477 255, 502 255 L 502 270 C 477 270, 442 290, 442 325 L 442 385 C 442 435, 402 465, 352 465 L 352 420 C 377 420, 392 405, 392 380 L 392 320 C 392 280, 422 255, 462 248 C 422 241, 392 216, 392 176 L 392 116 C 392 91, 377 76, 352 76 Z" fill="white" stroke="white" stroke-width="12" stroke-linejoin="round"/>

  <!-- THICK document lines inside brackets -->
  <line x1="180" y1="200" x2="332" y2="200" stroke="white" stroke-width="28" stroke-linecap="round" opacity="0.95"/>
  <line x1="180" y1="256" x2="332" y2="256" stroke="white" stroke-width="28" stroke-linecap="round" opacity="0.95"/>
  <line x1="180" y1="312" x2="270" y2="312" stroke="white" stroke-width="28" stroke-linecap="round" opacity="0.95"/>
</svg>
